# xmcd
#
# Track frame offsets:
# 182
# 9092
# 16927
# 27820
# 36042
# 46042
# 56827
# 65232
# 75825
# 84207
# 93972
# 103140
# 112120
# 122885
# 131465
# 139532
#
# Disc length: 1976 seconds
#
# Revision: 1
# Processed by: cddbd v1.4PL0 Copyright (c) Steve Scherf et al.
# Submitted via: CedeCatalogueitor 2.5 http://usuarios.lycos.es/kakasboy
#
DISCID=be07b610
DTITLE=EDDIE COCHRAN - PIONEROS DEL ROCK
DYEAR=1900
DGENRE=
TTITLE0=C'ON EVERYBODY
TTITLE1=TWENTY FLIGHT ROCK
TTITLE2=THREE STEPS TO HEAVEN
TTITLE3=WEEKEND
TTITLE4=SKINNY JIM
TTITLE5=COMPLETELY SWEET
TTITLE6=CUT A CROSS SHORTLY
TTITLE7=HALLE LUJAH, I LOVE HER SO
TTITLE8=BLUE SUEDE SHOES
TTITLE9=SOMETHIN' ELSE
TTITLE10=SITTIN' IN THE BALCONY
TTITLE11=SUMMERTIME BLUES
TTITLE12=JEANIE, JEANIE, JEANIE
TTITLE13=CHRISHED MEMORIES
TTITLE14=LONG TALL SALLY
TTITLE15=LETS GET TOGETHER
EXTD=
EXTT0=
EXTT1=
EXTT2=
EXTT3=
EXTT4=
EXTT5=
EXTT6=
EXTT7=
EXTT8=
EXTT9=
EXTT10=
EXTT11=
EXTT12=
EXTT13=
EXTT14=
EXTT15=
PLAYORDER=
